<?xml version="1.0" encoding="UTF-8" standalone="no"?>
<svg
   xmlns:dc="http://purl.org/dc/elements/1.1/"
   xmlns:cc="http://creativecommons.org/ns#"
   xmlns:rdf="http://www.w3.org/1999/02/22-rdf-syntax-ns#"
   xmlns:svg="http://www.w3.org/2000/svg"
   xmlns="http://www.w3.org/2000/svg"
   xmlns:sodipodi="http://sodipodi.sourceforge.net/DTD/sodipodi-0.dtd"
   xmlns:inkscape="http://www.inkscape.org/namespaces/inkscape"
   width="210mm"
   height="297mm"
   viewBox="0 0 210 297"
   version="1.1"
   id="svg16"
   inkscape:version="1.0.1 (0767f8302a, 2020-10-17)"
   sodipodi:docname="button_template.svg">
  <defs
     id="defs10" />
  <sodipodi:namedview
     id="base"
     pagecolor="#ffffff"
     bordercolor="#666666"
     borderopacity="1.0"
     inkscape:pageopacity="0.0"
     inkscape:pageshadow="2"
     inkscape:zoom="0.79152703"
     inkscape:cx="394.27906"
     inkscape:cy="158.3962"
     inkscape:document-units="mm"
     inkscape:current-layer="layer1"
     inkscape:document-rotation="0"
     showgrid="false"
     inkscape:window-width="1306"
     inkscape:window-height="713"
     inkscape:window-x="60"
     inkscape:window-y="27"
     inkscape:window-maximized="1" />
  <metadata
     id="metadata13">
    <rdf:RDF>
      <cc:Work
         rdf:about="">
        <dc:format>image/svg+xml</dc:format>
        <dc:type
           rdf:resource="http://purl.org/dc/dcmitype/StillImage" />
        <dc:title></dc:title>
      </cc:Work>
    </rdf:RDF>
  </metadata>
  <g
     inkscape:label="Слой 1"
     inkscape:groupmode="layer"
     id="layer1">
    <path
       id="path125"
       style="fill:#f2f2f2;stroke:#000000;stroke-width:0.3;stroke-miterlimit:4;stroke-dasharray:none"
       d="m 9.489779,0.52396297 a 9.5499912,9.4936877 0 0 0 -0.102398,0.0067 9.5499912,9.4936877 0 0 0 -0.133586,0.0098 9.5499912,9.4936877 0 0 0 -0.133586,0.0124 9.5499912,9.4936877 0 0 0 -0.133065,0.01395 9.5499912,9.4936877 0 0 0 -0.133066,0.01602 9.5499912,9.4936877 0 0 0 -0.133066,0.01757 9.5499912,9.4936877 0 0 0 -0.132547,0.01964 9.5499912,9.4936877 0 0 0 -0.132546,0.02119 9.5499912,9.4936877 0 0 0 -0.132026,0.02325 9.5499912,9.4936877 0 0 0 -0.131507,0.02532 9.5499912,9.4936877 0 0 0 -0.131506,0.02687 9.5499912,9.4936877 0 0 0 -0.130467,0.02893 9.5499912,9.4936877 0 0 0 -0.130467,0.03049 9.5499912,9.4936877 0 0 0 -0.130467,0.03255 9.5499912,9.4936877 0 0 0 -0.129428,0.03411 9.5499912,9.4936877 0 0 0 -0.128907,0.03617 9.5499912,9.4936877 0 0 0 -0.128388,0.03772 9.5499912,9.4936877 0 0 0 -0.128388,0.03979 9.5499912,9.4936877 0 0 0 -0.127348,0.04134 9.5499912,9.4936877 0 0 0 -0.126829,0.04289 9.5499912,9.4936877 0 0 0 -0.126309,0.04496 9.5499912,9.4936877 0 0 0 -0.125269,0.04702 9.5499912,9.4936877 0 0 0 -0.124749,0.04805 9.5499912,9.4936877 0 0 0 -0.12423,0.05012 9.5499912,9.4936877 0 0 0 -0.123709,0.05219 9.5499912,9.4936877 0 0 0 -0.12267,0.05374 9.5499912,9.4936877 0 0 0 -0.122151,0.05529 9.5499912,9.4936877 0 0 0 -0.121111,0.05684 9.5499912,9.4936877 0 0 0 -0.120071,0.05891 9.5499912,9.4936877 0 0 0 -0.119551,0.06046 9.5499912,9.4936877 0 0 0 -0.118512,0.062 9.5499912,9.4936877 0 0 0 -0.117992,0.06356 9.5499912,9.4936877 0 0 0 -0.116953,0.06511 9.5499912,9.4936877 0 0 0 -0.115913,0.06717 9.5499912,9.4936877 0 0 0 -0.114873,0.06872 9.5499912,9.4936877 0 0 0 -0.113834,0.06976 9.5499912,9.4936877 0 0 0 -0.113314,0.07183 9.5499912,9.4936877 0 0 0 -0.111754,0.07337 9.5499912,9.4936877 0 0 0 -0.110715,0.07493 9.5499912,9.4936877 0 0 0 -0.110196,0.07647 9.5499912,9.4936877 0 0 0 -0.108635,0.07802 9.5499912,9.4936877 0 0 0 -0.107597,0.07906 9.5499912,9.4936877 0 0 0 -0.106556,0.08113 9.5499912,9.4936877 0 0 0 -0.104998,0.08268 9.5499912,9.4936877 0 0 0 -0.104477,0.08371 9.5499912,9.4936877 0 0 0 -0.102919,0.08526 9.5499912,9.4936877 0 0 0 -0.101878,0.08681 9.5499912,9.4936877 0 0 0 -0.10032,0.08836 9.5499912,9.4936877 0 0 0 -0.09928,0.08939 9.5499912,9.4936877 0 0 0 -0.09824,0.09094 9.5499912,9.4936877 0 0 0 -0.09668,0.09249 9.5499912,9.4936877 0 0 0 -0.09512,0.09353 9.5499912,9.4936877 0 0 0 -0.09408,0.09508 9.5499912,9.4936877 0 0 0 -0.09252,0.09611 9.5499912,9.4936877 0 0 0 -0.09148,0.09766 9.5499912,9.4936877 0 0 0 -0.08992,0.09869 9.5499912,9.4936877 0 0 0 -0.08888,0.09973 9.5499912,9.4936877 0 0 0 -0.0868,0.101277 9.5499912,9.4936877 0 0 0 -0.08577,0.102831 9.5499912,9.4936877 0 0 0 -0.08421,0.103343 9.5499912,9.4936877 0 0 0 -0.08265,0.104897 9.5499912,9.4936877 0 0 0 -0.08161,0.105928 9.5499912,9.4936877 0 0 0 -0.07953,0.107479 9.5499912,9.4936877 0 0 0 -0.07849,0.107994 9.5499912,9.4936877 0 0 0 -0.07641,0.109545 9.5499912,9.4936877 0 0 0 -0.07537,0.110064 9.5499912,9.4936877 0 0 0 -0.07329,0.111611 9.5499912,9.4936877 0 0 0 -0.07225,0.112129 9.5499912,9.4936877 0 0 0 -0.07017,0.11368 9.5499912,9.4936877 0 0 0 -0.06913,0.114196 9.5499912,9.4936877 0 0 0 -0.06705,0.115231 9.5499912,9.4936877 0 0 0 -0.06549,0.116262 9.5499912,9.4936877 0 0 0 -0.06393,0.117296 9.5499912,9.4936877 0 0 0 -0.06238,0.117813 9.5499912,9.4936877 0 0 0 -0.0603,0.118847 9.5499912,9.4936877 0 0 0 -0.05926,0.119878 9.5499912,9.4936877 0 0 0 -0.05718,0.120398 9.5499912,9.4936877 0 0 0 -0.05562,0.121431 9.5499912,9.4936877 0 0 0 -0.05354,0.121945 9.5499912,9.4936877 0 0 0 -0.05198,0.122983 9.5499912,9.4936877 0 0 0 -0.05042,0.123497 9.5499912,9.4936877 0 0 0 -0.04834,0.12453 9.5499912,9.4936877 0 0 0 -0.04678,0.12453 9.5499912,9.4936877 0 0 0 -0.04522,0.125564 9.5499912,9.4936877 0 0 0 -0.04314,0.12608 9.5499912,9.4936877 0 0 0 -0.04158,0.127115 9.5499912,9.4936877 0 0 0 -0.0395,0.127114 9.5499912,9.4936877 0 0 0 -0.03795,0.127631 9.5499912,9.4936877 0 0 0 -0.03587,0.128665 9.5499912,9.4936877 0 0 0 -0.03431,0.128664 9.5499912,9.4936877 0 0 0 -0.03275,0.129181 9.5499912,9.4936877 0 0 0 -0.03067,0.129697 9.5499912,9.4936877 0 0 0 -0.02859,0.130215 9.5499912,9.4936877 0 0 0 -0.02703,0.130731 9.5499912,9.4936877 0 0 0 -0.02495,0.130731 9.5499912,9.4936877 0 0 0 -0.02339,0.13125 9.5499912,9.4936877 0 0 0 -0.02131,0.131763 9.5499912,9.4936877 0 0 0 -0.01923,0.131765 9.5499912,9.4936877 0 0 0 -0.01767,0.132282 9.5499912,9.4936877 0 0 0 -0.01559,0.132281 9.5499912,9.4936877 0 0 0 -0.01403,0.132282 9.5499912,9.4936877 0 0 0 -0.01196,0.132797 9.5499912,9.4936877 0 0 0 -0.0104,0.1328 9.5499912,9.4936877 0 0 0 -0.0057,0.09146 v 1.11871 18.880074 1.118706 a 9.5499912,9.4936877 0 0 0 0.0068,0.107998 9.5499912,9.4936877 0 0 0 0.0104,0.132797 9.5499912,9.4936877 0 0 0 0.01196,0.132798 9.5499912,9.4936877 0 0 0 0.01403,0.132281 9.5499912,9.4936877 0 0 0 0.01611,0.132797 9.5499912,9.4936877 0 0 0 0.01767,0.131766 9.5499912,9.4936877 0 0 0 0.01975,0.131766 9.5499912,9.4936877 0 0 0 0.02183,0.131765 9.5499912,9.4936877 0 0 0 0.02339,0.131247 9.5499912,9.4936877 0 0 0 0.02495,0.130731 9.5499912,9.4936877 0 0 0 0.02755,0.130731 9.5499912,9.4936877 0 0 0 0.02859,0.129699 9.5499912,9.4936877 0 0 0 0.03067,0.129697 9.5499912,9.4936877 0 0 0 0.03275,0.129697 9.5499912,9.4936877 0 0 0 0.03431,0.128665 9.5499912,9.4936877 0 0 0 0.03638,0.128148 9.5499912,9.4936877 0 0 0 0.03795,0.128147 9.5499912,9.4936877 0 0 0 0.04002,0.127114 9.5499912,9.4936877 0 0 0 0.04158,0.126599 9.5499912,9.4936877 0 0 0 0.04366,0.12608 9.5499912,9.4936877 0 0 0 0.04522,0.125564 9.5499912,9.4936877 0 0 0 0.04678,0.12453 9.5499912,9.4936877 0 0 0 0.04886,0.12453 9.5499912,9.4936877 0 0 0 0.05042,0.122981 9.5499912,9.4936877 0 0 0 0.05198,0.12298 9.5499912,9.4936877 0 0 0 0.05406,0.121947 9.5499912,9.4936877 0 0 0 0.05562,0.12143 9.5499912,9.4936877 0 0 0 0.05718,0.120397 9.5499912,9.4936877 0 0 0 0.05926,0.119363 9.5499912,9.4936877 0 0 0 0.06082,0.118847 9.5499912,9.4936877 0 0 0 0.06237,0.118331 9.5499912,9.4936877 0 0 0 0.06393,0.116778 9.5499912,9.4936877 0 0 0 0.06601,0.116265 9.5499912,9.4936877 0 0 0 0.06705,0.115227 9.5499912,9.4936877 0 0 0 0.06913,0.114199 9.5499912,9.4936877 0 0 0 0.07069,0.113162 9.5499912,9.4936877 0 0 0 0.07225,0.112645 9.5499912,9.4936877 0 0 0 0.07329,0.111095 9.5499912,9.4936877 0 0 0 0.07537,0.110064 9.5499912,9.4936877 0 0 0 0.07693,0.109544 9.5499912,9.4936877 0 0 0 0.07849,0.107995 9.5499912,9.4936877 0 0 0 0.08005,0.106963 9.5499912,9.4936877 0 0 0 0.08109,0.105929 9.5499912,9.4936877 0 0 0 0.08317,0.104377 9.5499912,9.4936877 0 0 0 0.08421,0.103862 9.5499912,9.4936877 0 0 0 0.08576,0.102313 9.5499912,9.4936877 0 0 0 0.08732,0.101277 9.5499912,9.4936877 0 0 0 0.08888,0.09973 9.5499912,9.4936877 0 0 0 0.08992,0.09869 9.5499912,9.4936877 0 0 0 0.09148,0.09766 9.5499912,9.4936877 0 0 0 0.09304,0.09611 9.5499912,9.4936877 0 0 0 0.09408,0.09456 9.5499912,9.4936877 0 0 0 0.09564,0.09352 9.5499912,9.4936877 0 0 0 0.09668,0.09249 9.5499912,9.4936877 0 0 0 0.09824,0.09042 9.5499912,9.4936877 0 0 0 0.09928,0.08939 9.5499912,9.4936877 0 0 0 0.100839,0.08836 9.5499912,9.4936877 0 0 0 0.101878,0.08629 9.5499912,9.4936877 0 0 0 0.102918,0.08526 9.5499912,9.4936877 0 0 0 0.104478,0.08371 9.5499912,9.4936877 0 0 0 0.105517,0.08215 9.5499912,9.4936877 0 0 0 0.106557,0.08112 9.5499912,9.4936877 0 0 0 0.107596,0.07906 9.5499912,9.4936877 0 0 0 0.108636,0.07802 9.5499912,9.4936877 0 0 0 0.110195,0.07596 9.5499912,9.4936877 0 0 0 0.111235,0.07492 9.5499912,9.4936877 0 0 0 0.111755,0.07337 9.5499912,9.4936877 0 0 0 0.113314,0.0713 9.5499912,9.4936877 0 0 0 0.113833,0.07027 9.5499912,9.4936877 0 0 0 0.114874,0.0682 9.5499912,9.4936877 0 0 0 0.116432,0.06665 9.5499912,9.4936877 0 0 0 0.116953,0.06511 9.5499912,9.4936877 0 0 0 0.117472,0.06356 9.5499912,9.4936877 0 0 0 0.119032,0.062 9.5499912,9.4936877 0 0 0 0.119551,0.06045 9.5499912,9.4936877 0 0 0 0.120071,0.05839 9.5499912,9.4936877 0 0 0 0.121631,0.05685 9.5499912,9.4936877 0 0 0 0.12215,0.05529 9.5499912,9.4936877 0 0 0 0.122671,0.05323 9.5499912,9.4936877 0 0 0 0.123189,0.05168 9.5499912,9.4936877 0 0 0 0.12423,0.05013 9.5499912,9.4936877 0 0 0 0.125269,0.04806 9.5499912,9.4936877 0 0 0 0.125789,0.04651 9.5499912,9.4936877 0 0 0 0.126309,0.04496 9.5499912,9.4936877 0 0 0 0.126828,0.04289 9.5499912,9.4936877 0 0 0 0.127348,0.04134 9.5499912,9.4936877 0 0 0 0.127869,0.03927 9.5499912,9.4936877 0 0 0 0.128907,0.03773 9.5499912,9.4936877 0 0 0 0.128908,0.03617 9.5499912,9.4936877 0 0 0 0.129427,0.03359 9.5499912,9.4936877 0 0 0 0.130467,0.03256 9.5499912,9.4936877 0 0 0 0.130467,0.03049 9.5499912,9.4936877 0 0 0 0.130987,0.02842 9.5499912,9.4936877 0 0 0 0.130987,0.02687 9.5499912,9.4936877 0 0 0 0.132026,0.02481 9.5499912,9.4936877 0 0 0 0.132027,0.02325 9.5499912,9.4936877 0 0 0 0.132026,0.02119 9.5499912,9.4936877 0 0 0 0.132546,0.01912 9.5499912,9.4936877 0 0 0 0.133066,0.01757 9.5499912,9.4936877 0 0 0 0.133066,0.01602 9.5499912,9.4936877 0 0 0 0.133586,0.01344 9.5499912,9.4936877 0 0 0 0.133585,0.01189 9.5499912,9.4936877 0 0 0 0.133586,0.01033 9.5499912,9.4936877 0 0 0 0.092,0.0057 h 1.125343 79.381629 79.38164 1.12534 a 9.5499912,9.4936877 0 0 0 0.092,-0.0057 9.5499912,9.4936877 0 0 0 0.13359,-0.01033 9.5499912,9.4936877 0 0 0 0.13359,-0.01189 9.5499912,9.4936877 0 0 0 0.13359,-0.01344 9.5499912,9.4936877 0 0 0 0.13306,-0.01602 9.5499912,9.4936877 0 0 0 0.13306,-0.01757 9.5499912,9.4936877 0 0 0 0.13256,-0.01912 9.5499912,9.4936877 0 0 0 0.13201,-0.02119 9.5499912,9.4936877 0 0 0 0.13203,-0.02325 9.5499912,9.4936877 0 0 0 0.13203,-0.02481 9.5499912,9.4936877 0 0 0 0.13098,-0.02687 9.5499912,9.4936877 0 0 0 0.13099,-0.02842 9.5499912,9.4936877 0 0 0 0.13047,-0.03049 9.5499912,9.4936877 0 0 0 0.13046,-0.03256 9.5499912,9.4936877 0 0 0 0.12944,-0.03359 9.5499912,9.4936877 0 0 0 0.1289,-0.03617 9.5499912,9.4936877 0 0 0 0.12891,-0.03773 9.5499912,9.4936877 0 0 0 0.12787,-0.03927 9.5499912,9.4936877 0 0 0 0.12734,-0.04134 9.5499912,9.4936877 0 0 0 0.12684,-0.04289 9.5499912,9.4936877 0 0 0 0.1263,-0.04496 9.5499912,9.4936877 0 0 0 0.1258,-0.04651 9.5499912,9.4936877 0 0 0 0.12526,-0.04806 9.5499912,9.4936877 0 0 0 0.12423,-0.05013 9.5499912,9.4936877 0 0 0 0.12319,-0.05168 9.5499912,9.4936877 0 0 0 0.12267,-0.05323 9.5499912,9.4936877 0 0 0 0.12215,-0.05529 9.5499912,9.4936877 0 0 0 0.12164,-0.05685 9.5499912,9.4936877 0 0 0 0.12007,-0.05839 9.5499912,9.4936877 0 0 0 0.11954,-0.06045 9.5499912,9.4936877 0 0 0 0.11903,-0.062 9.5499912,9.4936877 0 0 0 0.11748,-0.06356 9.5499912,9.4936877 0 0 0 0.11695,-0.06511 9.5499912,9.4936877 0 0 0 0.11644,-0.06665 9.5499912,9.4936877 0 0 0 0.11486,-0.0682 9.5499912,9.4936877 0 0 0 0.11385,-0.07027 9.5499912,9.4936877 0 0 0 0.11331,-0.0713 9.5499912,9.4936877 0 0 0 0.11175,-0.07337 9.5499912,9.4936877 0 0 0 0.11123,-0.07492 9.5499912,9.4936877 0 0 0 0.11019,-0.07596 9.5499912,9.4936877 0 0 0 0.10865,-0.07802 9.5499912,9.4936877 0 0 0 0.10759,-0.07906 9.5499912,9.4936877 0 0 0 0.10656,-0.08112 9.5499912,9.4936877 0 0 0 0.10552,-0.08215 9.5499912,9.4936877 0 0 0 0.10447,-0.08371 9.5499912,9.4936877 0 0 0 0.10292,-0.08526 9.5499912,9.4936877 0 0 0 0.10188,-0.08629 9.5499912,9.4936877 0 0 0 0.10084,-0.08836 9.5499912,9.4936877 0 0 0 0.0993,-0.08939 9.5499912,9.4936877 0 0 0 0.0983,-0.09042 9.5499912,9.4936877 0 0 0 0.0967,-0.09249 9.5499912,9.4936877 0 0 0 0.0957,-0.09352 9.5499912,9.4936877 0 0 0 0.0941,-0.09456 9.5499912,9.4936877 0 0 0 0.093,-0.09611 9.5499912,9.4936877 0 0 0 0.0914,-0.09766 9.5499912,9.4936877 0 0 0 0.0899,-0.09869 9.5499912,9.4936877 0 0 0 0.0889,-0.09973 9.5499912,9.4936877 0 0 0 0.0873,-0.101277 9.5499912,9.4936877 0 0 0 0.0858,-0.102313 9.5499912,9.4936877 0 0 0 0.0842,-0.103862 9.5499912,9.4936877 0 0 0 0.0832,-0.104377 9.5499912,9.4936877 0 0 0 0.0811,-0.105929 9.5499912,9.4936877 0 0 0 0.0801,-0.106963 9.5499912,9.4936877 0 0 0 0.0785,-0.107995 9.5499912,9.4936877 0 0 0 0.077,-0.109544 9.5499912,9.4936877 0 0 0 0.0753,-0.110064 9.5499912,9.4936877 0 0 0 0.0733,-0.111095 9.5499912,9.4936877 0 0 0 0.0722,-0.112645 9.5499912,9.4936877 0 0 0 0.0707,-0.113162 9.5499912,9.4936877 0 0 0 0.0691,-0.114199 9.5499912,9.4936877 0 0 0 0.0671,-0.115227 9.5499912,9.4936877 0 0 0 0.066,-0.116265 9.5499912,9.4936877 0 0 0 0.064,-0.116778 9.5499912,9.4936877 0 0 0 0.0624,-0.118331 9.5499912,9.4936877 0 0 0 0.0609,-0.118847 9.5499912,9.4936877 0 0 0 0.0592,-0.119363 9.5499912,9.4936877 0 0 0 0.0571,-0.120397 9.5499912,9.4936877 0 0 0 0.0556,-0.12143 9.5499912,9.4936877 0 0 0 0.054,-0.121947 9.5499912,9.4936877 0 0 0 0.052,-0.12298 9.5499912,9.4936877 0 0 0 0.0504,-0.122981 9.5499912,9.4936877 0 0 0 0.0489,-0.12453 9.5499912,9.4936877 0 0 0 0.0468,-0.12453 9.5499912,9.4936877 0 0 0 0.0453,-0.125564 9.5499912,9.4936877 0 0 0 0.0437,-0.12608 9.5499912,9.4936877 0 0 0 0.0415,-0.126599 9.5499912,9.4936877 0 0 0 0.04,-0.127114 9.5499912,9.4936877 0 0 0 0.0379,-0.128147 9.5499912,9.4936877 0 0 0 0.0364,-0.128148 9.5499912,9.4936877 0 0 0 0.0343,-0.128665 9.5499912,9.4936877 0 0 0 0.0328,-0.129697 9.5499912,9.4936877 0 0 0 0.0307,-0.129697 9.5499912,9.4936877 0 0 0 0.0286,-0.129699 9.5499912,9.4936877 0 0 0 0.0276,-0.130731 9.5499912,9.4936877 0 0 0 0.0249,-0.130731 9.5499912,9.4936877 0 0 0 0.0233,-0.131247 9.5499912,9.4936877 0 0 0 0.0218,-0.131765 9.5499912,9.4936877 0 0 0 0.0197,-0.131766 9.5499912,9.4936877 0 0 0 0.0177,-0.131766 9.5499912,9.4936877 0 0 0 0.0161,-0.132797 9.5499912,9.4936877 0 0 0 0.0141,-0.132281 9.5499912,9.4936877 0 0 0 0.012,-0.132798 9.5499912,9.4936877 0 0 0 0.0104,-0.132797 9.5499912,9.4936877 0 0 0 0.007,-0.107998 V 29.438282 10.558208 9.439498 a 9.5499912,9.4936877 0 0 0 -0.006,-0.09146 9.5499912,9.4936877 0 0 0 -0.0104,-0.1328 9.5499912,9.4936877 0 0 0 -0.012,-0.132797 9.5499912,9.4936877 0 0 0 -0.014,-0.132282 9.5499912,9.4936877 0 0 0 -0.0156,-0.132281 9.5499912,9.4936877 0 0 0 -0.0177,-0.132282 9.5499912,9.4936877 0 0 0 -0.0192,-0.131765 9.5499912,9.4936877 0 0 0 -0.0213,-0.131763 9.5499912,9.4936877 0 0 0 -0.0233,-0.13125 9.5499912,9.4936877 0 0 0 -0.0249,-0.130731 9.5499912,9.4936877 0 0 0 -0.0271,-0.130731 9.5499912,9.4936877 0 0 0 -0.0286,-0.130215 9.5499912,9.4936877 0 0 0 -0.0307,-0.129697 9.5499912,9.4936877 0 0 0 -0.0328,-0.12918 9.5499912,9.4936877 0 0 0 -0.0343,-0.128665 9.5499912,9.4936877 0 0 0 -0.0359,-0.128665 9.5499912,9.4936877 0 0 0 -0.0379,-0.127631 9.5499912,9.4936877 0 0 0 -0.0395,-0.127114 9.5499912,9.4936877 0 0 0 -0.0415,-0.127115 9.5499912,9.4936877 0 0 0 -0.0432,-0.12608 9.5499912,9.4936877 0 0 0 -0.0453,-0.125564 9.5499912,9.4936877 0 0 0 -0.0468,-0.12453 9.5499912,9.4936877 0 0 0 -0.0484,-0.124529 9.5499912,9.4936877 0 0 0 -0.0504,-0.123498 9.5499912,9.4936877 0 0 0 -0.052,-0.122982 9.5499912,9.4936877 0 0 0 -0.0535,-0.121945 9.5499912,9.4936877 0 0 0 -0.0556,-0.121432 9.5499912,9.4936877 0 0 0 -0.0571,-0.120397 9.5499912,9.4936877 0 0 0 -0.0592,-0.119879 9.5499912,9.4936877 0 0 0 -0.0602,-0.118847 9.5499912,9.4936877 0 0 0 -0.0624,-0.117813 9.5499912,9.4936877 0 0 0 -0.064,-0.117296 9.5499912,9.4936877 0 0 0 -0.0655,-0.116262 9.5499912,9.4936877 0 0 0 -0.0671,-0.115231 9.5499912,9.4936877 0 0 0 -0.0691,-0.114196 9.5499912,9.4936877 0 0 0 -0.0702,-0.11368 9.5499912,9.4936877 0 0 0 -0.0722,-0.112129 9.5499912,9.4936877 0 0 0 -0.0733,-0.111611 9.5499912,9.4936877 0 0 0 -0.0753,-0.110064 9.5499912,9.4936877 0 0 0 -0.0764,-0.109545 9.5499912,9.4936877 0 0 0 -0.0785,-0.107994 9.5499912,9.4936877 0 0 0 -0.0796,-0.107479 9.5499912,9.4936877 0 0 0 -0.0816,-0.105928 9.5499912,9.4936877 0 0 0 -0.0827,-0.104897 9.5499912,9.4936877 0 0 0 -0.0842,-0.103343 9.5499912,9.4936877 0 0 0 -0.0858,-0.102831 9.5499912,9.4936877 0 0 0 -0.0868,-0.101277 9.5499912,9.4936877 0 0 0 -0.0889,-0.09973 9.5499912,9.4936877 0 0 0 -0.0899,-0.09869 9.5499912,9.4936877 0 0 0 -0.0914,-0.09766 9.5499912,9.4936877 0 0 0 -0.0925,-0.09611 9.5499912,9.4936877 0 0 0 -0.094,-0.09508 9.5499912,9.4936877 0 0 0 -0.0952,-0.09353 9.5499912,9.4936877 0 0 0 -0.0967,-0.09249 9.5499912,9.4936877 0 0 0 -0.0983,-0.09094 9.5499912,9.4936877 0 0 0 -0.0993,-0.08939 9.5499912,9.4936877 0 0 0 -0.10028,-0.08836 9.5499912,9.4936877 0 0 0 -0.10189,-0.08681 9.5499912,9.4936877 0 0 0 -0.10292,-0.08526 9.5499912,9.4936877 0 0 0 -0.10447,-0.08371 9.5499912,9.4936877 0 0 0 -0.10499,-0.08268 9.5499912,9.4936877 0 0 0 -0.10656,-0.08113 9.5499912,9.4936877 0 0 0 -0.1076,-0.07906 9.5499912,9.4936877 0 0 0 -0.10863,-0.07803 9.5499912,9.4936877 0 0 0 -0.1102,-0.07647 9.5499912,9.4936877 0 0 0 -0.11072,-0.07493 9.5499912,9.4936877 0 0 0 -0.11175,-0.07337 9.5499912,9.4936877 0 0 0 -0.11332,-0.07183 9.5499912,9.4936877 0 0 0 -0.11383,-0.06976 9.5499912,9.4936877 0 0 0 -0.11487,-0.06872 9.5499912,9.4936877 0 0 0 -0.11591,-0.06718 9.5499912,9.4936877 0 0 0 -0.11695,-0.06511 9.5499912,9.4936877 0 0 0 -0.118,-0.06356 9.5499912,9.4936877 0 0 0 -0.11851,-0.06201 9.5499912,9.4936877 0 0 0 -0.11956,-0.06046 9.5499912,9.4936877 0 0 0 -0.12006,-0.05891 9.5499912,9.4936877 0 0 0 -0.12112,-0.05684 9.5499912,9.4936877 0 0 0 -0.12215,-0.05529 9.5499912,9.4936877 0 0 0 -0.12266,-0.05374 9.5499912,9.4936877 0 0 0 -0.12371,-0.05219 9.5499912,9.4936877 0 0 0 -0.12424,-0.05012 9.5499912,9.4936877 0 0 0 -0.12474,-0.04805 9.5499912,9.4936877 0 0 0 -0.12527,-0.04702 9.5499912,9.4936877 0 0 0 -0.12632,-0.04495 9.5499912,9.4936877 0 0 0 -0.12682,-0.04289 9.5499912,9.4936877 0 0 0 -0.12734,-0.04134 9.5499912,9.4936877 0 0 0 -0.1284,-0.03979 9.5499912,9.4936877 0 0 0 -0.12839,-0.03772 9.5499912,9.4936877 0 0 0 -0.1289,-0.03617 9.5499912,9.4936877 0 0 0 -0.12943,-0.03411 9.5499912,9.4936877 0 0 0 -0.13047,-0.03255 9.5499912,9.4936877 0 0 0 -0.13046,-0.03049 9.5499912,9.4936877 0 0 0 -0.13047,-0.02893 9.5499912,9.4936877 0 0 0 -0.1315,-0.02687 9.5499912,9.4936877 0 0 0 -0.13151,-0.02532 9.5499912,9.4936877 0 0 0 -0.13203,-0.02325 9.5499912,9.4936877 0 0 0 -0.13255,-0.02119 9.5499912,9.4936877 0 0 0 -0.13254,-0.01964 9.5499912,9.4936877 0 0 0 -0.13306,-0.01757 9.5499912,9.4936877 0 0 0 -0.13307,-0.01602 9.5499912,9.4936877 0 0 0 -0.13307,-0.01395 9.5499912,9.4936877 0 0 0 -0.13359,-0.0124 9.5499912,9.4936877 0 0 0 -0.13358,-0.0098 9.5499912,9.4936877 0 0 0 -0.1024,-0.0067 H 169.37842 89.9999 10.621394 Z" />
    <path
       id="path147"
       style="fill:#ffd5d5;stroke:#000000;stroke-width:0.00755906;stroke-miterlimit:4;stroke-dasharray:none"
       d="M 75.589844,11.53125 A 64.058491,64.058491 0 0 0 11.53125,75.589844 64.058491,64.058491 0 0 0 75.589844,139.64844 64.058491,64.058491 0 0 0 128.70898,111.39258 h 158.32813 a 64.058491,64.058491 0 0 0 53.12109,28.25586 64.058491,64.058491 0 0 0 53.11914,-28.25586 H 551.60352 A 64.058491,64.058491 0 0 0 604.72461,139.64844 64.058491,64.058491 0 0 0 668.7832,75.589844 64.058491,64.058491 0 0 0 604.72461,11.53125 64.058491,64.058491 0 0 0 551.60547,39.789062 H 393.27734 A 64.058491,64.058491 0 0 0 340.1582,11.53125 64.058491,64.058491 0 0 0 287.03906,39.789062 H 128.71094 A 64.058491,64.058491 0 0 0 75.589844,11.53125 Z"
       transform="scale(0.26458333)" />
  </g>
</svg>
