<?xml version="1.0" encoding="UTF-8" standalone="no"?>
<svg
   xmlns:dc="http://purl.org/dc/elements/1.1/"
   xmlns:cc="http://creativecommons.org/ns#"
   xmlns:rdf="http://www.w3.org/1999/02/22-rdf-syntax-ns#"
   xmlns:svg="http://www.w3.org/2000/svg"
   xmlns="http://www.w3.org/2000/svg"
   xmlns:sodipodi="http://sodipodi.sourceforge.net/DTD/sodipodi-0.dtd"
   xmlns:inkscape="http://www.inkscape.org/namespaces/inkscape"
   width="210mm"
   height="297mm"
   viewBox="0 0 210 297"
   version="1.1"
   id="svg16"
   inkscape:version="1.0.1 (0767f8302a, 2020-10-17)"
   sodipodi:docname="Gr_center_button_template.svg"
   inkscape:export-filename="/home/kraysent/MSU/3 семестр/Программирование/Final Project/Lib/Resources/pictures/Gr_center_button.png"
   inkscape:export-xdpi="12.699991"
   inkscape:export-ydpi="12.699991">
  <defs
     id="defs10" />
  <sodipodi:namedview
     id="base"
     pagecolor="#ffffff"
     bordercolor="#666666"
     borderopacity="1.0"
     inkscape:pageopacity="0.0"
     inkscape:pageshadow="2"
     inkscape:zoom="1.1193883"
     inkscape:cx="179.11679"
     inkscape:cy="86.211831"
     inkscape:document-units="mm"
     inkscape:current-layer="layer1"
     inkscape:document-rotation="0"
     showgrid="false"
     inkscape:window-width="1306"
     inkscape:window-height="713"
     inkscape:window-x="60"
     inkscape:window-y="27"
     inkscape:window-maximized="1" />
  <metadata
     id="metadata13">
    <rdf:RDF>
      <cc:Work
         rdf:about="">
        <dc:format>image/svg+xml</dc:format>
        <dc:type
           rdf:resource="http://purl.org/dc/dcmitype/StillImage" />
        <dc:title />
      </cc:Work>
    </rdf:RDF>
  </metadata>
  <g
     inkscape:label="Слой 1"
     inkscape:groupmode="layer"
     id="layer1">
    <path
       id="path125"
       style="fill:#f2f2f2;stroke:#000000;stroke-width:0.303481;stroke-miterlimit:4;stroke-dasharray:none"
       d="M 9.1548603,0.15176199 A 9.589706,9.6750751 0 0 0 9.0520365,0.15859011 9.589706,9.6750751 0 0 0 8.917895,0.16857751 9.589706,9.6750751 0 0 0 8.7837534,0.18121442 9.589706,9.6750751 0 0 0 8.6501351,0.19543098 9.589706,9.6750751 0 0 0 8.5165157,0.21175701 9.589706,9.6750751 0 0 0 8.3828963,0.22966269 9.589706,9.6750751 0 0 0 8.2497981,0.24967795 9.589706,9.6750751 0 0 0 8.116701,0.27127284 9.589706,9.6750751 0 0 0 7.9841259,0.29496703 9.589706,9.6750751 0 0 0 7.852072,0.3207708 9.589706,9.6750751 0 0 0 7.7200191,0.34815422 9.589706,9.6750751 0 0 0 7.5890095,0.37763692 9.589706,9.6750751 0 0 0 7.458,0.40870945 9.589706,9.6750751 0 0 0 7.3269904,0.44188137 9.589706,9.6750751 0 0 0 7.1970242,0.47664313 9.589706,9.6750751 0 0 0 7.0675811,0.51350418 9.589706,9.6750751 0 0 0 6.9386592,0.55194486 9.589706,9.6750751 0 0 0 6.8097372,0.59249513 9.589706,9.6750751 0 0 0 6.6818597,0.63462491 9.589706,9.6750751 0 0 0 6.5545033,0.67833441 9.589706,9.6750751 0 0 0 6.427669,0.72415311 9.589706,9.6750751 0 0 0 6.301879,0.77207121 9.589706,9.6750751 0 0 0 6.1766112,0.82103901 9.589706,9.6750751 0 0 0 6.0518646,0.87211641 9.589706,9.6750751 0 0 0 5.9276412,0.92530341 9.589706,9.6750751 0 0 0 5.804461,0.98007001 9.589706,9.6750751 0 0 0 5.6818021,1.0364163 9.589706,9.6750751 0 0 0 5.5601874,1.0943422 9.589706,9.6750751 0 0 0 5.439617,1.1543777 9.589706,9.6750751 0 0 0 5.3195689,1.2159928 9.589706,9.6750751 0 0 0 5.200564,1.2791774 9.589706,9.6750751 0 0 0 5.0820814,1.3439518 9.589706,9.6750751 0 0 0 4.964642,1.4103058 9.589706,9.6750751 0 0 0 4.8482469,1.4787592 9.589706,9.6750751 0 0 0 4.7328963,1.5487923 9.589706,9.6750751 0 0 0 4.6185889,1.6198853 9.589706,9.6750751 0 0 0 4.5048036,1.6930878 9.589706,9.6750751 0 0 0 4.3925849,1.7678598 9.589706,9.6750751 0 0 0 4.2814095,1.8442216 9.589706,9.6750751 0 0 0 4.1707552,1.9221529 9.589706,9.6750751 0 0 0 4.0616685,2.0016639 9.589706,9.6750751 0 0 0 3.953624,2.0822349 a 9.589706,9.6750751 0 0 0 -0.1069991,0.08268 9.589706,9.6750751 0 0 0 -0.1054346,0.08426 9.589706,9.6750751 0 0 0 -0.1049116,0.08531 9.589706,9.6750751 0 0 0 -0.1033469,0.086889 9.589706,9.6750751 0 0 0 -0.1023017,0.088469 9.589706,9.6750751 0 0 0 -0.1007372,0.090049 9.589706,9.6750751 0 0 0 -0.099693,0.091098 9.589706,9.6750751 0 0 0 -0.098649,0.092677 9.589706,9.6750751 0 0 0 -0.097082,0.094257 9.589706,9.6750751 0 0 0 -0.095516,0.095317 9.589706,9.6750751 0 0 0 -0.094472,0.096897 9.589706,9.6750751 0 0 0 -0.092904,0.097947 9.589706,9.6750751 0 0 0 -0.09186,0.099525 9.589706,9.6750751 0 0 0 -0.090294,0.1005752 9.589706,9.6750751 0 0 0 -0.08925,0.101636 9.589706,9.6750751 0 0 0 -0.087161,0.103212 9.589706,9.6750751 0 0 0 -0.086127,0.1047957 9.589706,9.6750751 0 0 0 -0.084561,0.1053174 9.589706,9.6750751 0 0 0 -0.082994,0.1069013 9.589706,9.6750751 0 0 0 -0.08195,0.1079519 9.589706,9.6750751 0 0 0 -0.079861,0.1095324 9.589706,9.6750751 0 0 0 -0.078817,0.1100574 9.589706,9.6750751 0 0 0 -0.076728,0.111638 A 9.589706,9.6750751 0 0 0 1.7462899,4.441394 9.589706,9.6750751 0 0 0 1.6726949,4.5551375 9.589706,9.6750751 0 0 0 1.6001439,4.6694088 9.589706,9.6750751 0 0 0 1.5296819,4.7852608 9.589706,9.6750751 0 0 0 1.4602679,4.9016393 9.589706,9.6750751 0 0 0 1.3929389,5.0190718 9.589706,9.6750751 0 0 0 1.3271769,5.1375552 9.589706,9.6750751 0 0 0 1.2629809,5.2570923 9.589706,9.6750751 0 0 0 1.2003419,5.3771562 9.589706,9.6750751 0 0 0 1.1397909,5.4982739 9.589706,9.6750751 0 0 0 1.0802849,5.6204423 9.589706,9.6750751 0 0 0 1.0228669,5.7431407 9.589706,9.6750751 0 0 0 0.9670158,5.8668917 9.589706,9.6750751 0 0 0 0.9132526,5.9911666 9.589706,9.6750751 0 0 0 0.8610565,6.1164993 9.589706,9.6750751 0 0 0 0.8104263,6.2423559 9.589706,9.6750751 0 0 0 0.761885,6.3692651 9.589706,9.6750751 0 0 0 0.7149108,6.4961744 9.589706,9.6750751 0 0 0 0.6695025,6.6241375 9.589706,9.6750751 0 0 0 0.6261831,6.7526263 9.589706,9.6750751 0 0 0 0.5844302,6.88217 9.589706,9.6750751 0 0 0 0.5447659,7.0117127 9.589706,9.6750751 0 0 0 0.5066581,7.1417822 9.589706,9.6750751 0 0 0 0.470639,7.2729055 9.589706,9.6750751 0 0 0 0.4361863,7.4040278 9.589706,9.6750751 0 0 0 0.4033001,7.5356769 9.589706,9.6750751 0 0 0 0.3725026,7.667852 9.589706,9.6750751 0 0 0 0.3437965,7.8005518 9.589706,9.6750751 0 0 0 0.3166541,7.9337805 9.589706,9.6750751 0 0 0 0.2916003,8.0670093 9.589706,9.6750751 0 0 0 0.268113,8.200767 9.589706,9.6750751 0 0 0 0.2467144,8.3350475 9.589706,9.6750751 0 0 0 0.2274044,8.46933 9.589706,9.6750751 0 0 0 0.2096609,8.6041394 9.589706,9.6750751 0 0 0 0.194006,8.7389477 9.589706,9.6750751 0 0 0 0.1799177,8.8737571 9.589706,9.6750751 0 0 0 0.167908,9.0090913 9.589706,9.6750751 0 0 0 0.1574648,9.1444287 9.589706,9.6750751 0 0 0 0.1517408,9.2376357 v 1.1400843 19.240798 1.14008 a 9.589706,9.6750751 0 0 0 0.006828,0.110061 9.589706,9.6750751 0 0 0 0.0104432,0.135335 9.589706,9.6750751 0 0 0 0.0120097,0.135335 9.589706,9.6750751 0 0 0 0.0140884,0.134808 9.589706,9.6750751 0 0 0 0.016177,0.135335 9.589706,9.6750751 0 0 0 0.0177435,0.134283 9.589706,9.6750751 0 0 0 0.0198322,0.134284 9.589706,9.6750751 0 0 0 0.0219208,0.134283 9.589706,9.6750751 0 0 0 0.0234872,0.133753 9.589706,9.6750751 0 0 0 0.0250537,0.133229 9.589706,9.6750751 0 0 0 0.0276646,0.133229 9.589706,9.6750751 0 0 0 0.0287089,0.132177 9.589706,9.6750751 0 0 0 0.0307975,0.132175 9.589706,9.6750751 0 0 0 0.0328862,0.132175 9.589706,9.6750751 0 0 0 0.0344527,0.131124 9.589706,9.6750751 0 0 0 0.0365313,0.130596 9.589706,9.6750751 0 0 0 0.0381078,0.130596 9.589706,9.6750751 0 0 0 0.0401865,0.129542 9.589706,9.6750751 0 0 0 0.0417527,0.129018 9.589706,9.6750751 0 0 0 0.043841,0.128489 9.589706,9.6750751 0 0 0 0.045408,0.127963 9.589706,9.6750751 0 0 0 0.046974,0.126909 9.589706,9.6750751 0 0 0 0.049063,0.12691 9.589706,9.6750751 0 0 0 0.05063,0.12533 9.589706,9.6750751 0 0 0 0.052196,0.12533 9.589706,9.6750751 0 0 0 0.054285,0.124277 9.589706,9.6750751 0 0 0 0.055851,0.12375 9.589706,9.6750751 0 0 0 0.057418,0.122697 9.589706,9.6750751 0 0 0 0.059506,0.121644 9.589706,9.6750751 0 0 0 0.061073,0.121117 9.589706,9.6750751 0 0 0 0.062629,0.120592 9.589706,9.6750751 0 0 0 0.064196,0.119009 9.589706,9.6750751 0 0 0 0.066285,0.118487 9.589706,9.6750751 0 0 0 0.067329,0.11743 9.589706,9.6750751 0 0 0 0.069418,0.116379 9.589706,9.6750751 0 0 0 0.070984,0.115324 9.589706,9.6750751 0 0 0 0.072551,0.114797 9.589706,9.6750751 0 0 0 0.073595,0.113219 9.589706,9.6750751 0 0 0 0.075684,0.112166 9.589706,9.6750751 0 0 0 0.07725,0.111637 9.589706,9.6750751 0 0 0 0.078817,0.110058 9.589706,9.6750751 0 0 0 0.080383,0.109007 9.589706,9.6750751 0 0 0 0.081427,0.107953 9.589706,9.6750751 0 0 0 0.083516,0.106371 9.589706,9.6750751 0 0 0 0.08456,0.105847 9.589706,9.6750751 0 0 0 0.086117,0.104267 9.589706,9.6750751 0 0 0 0.087684,0.103212 9.589706,9.6750751 0 0 0 0.08925,0.101637 9.589706,9.6750751 0 0 0 0.090294,0.100577 9.589706,9.6750751 0 0 0 0.091861,0.09953 9.589706,9.6750751 0 0 0 0.093427,0.09795 9.589706,9.6750751 0 0 0 0.094472,0.09637 9.589706,9.6750751 0 0 0 0.096037,0.09531 9.589706,9.6750751 0 0 0 0.097082,0.09426 9.589706,9.6750751 0 0 0 0.098648,0.09215 9.589706,9.6750751 0 0 0 0.099693,0.0911 9.589706,9.6750751 0 0 0 0.1012583,0.09005 9.589706,9.6750751 0 0 0 0.1023017,0.08794 9.589706,9.6750751 0 0 0 0.1033461,0.08689 9.589706,9.6750751 0 0 0 0.1049124,0.08531 9.589706,9.6750751 0 0 0 0.1059558,0.08372 9.589706,9.6750751 0 0 0 0.1070001,0.08267 9.589706,9.6750751 0 0 0 0.1080435,0.08057 9.589706,9.6750751 0 0 0 0.1090877,0.07951 9.589706,9.6750751 0 0 0 0.1106533,0.07741 9.589706,9.6750751 0 0 0 0.1116976,0.07635 9.589706,9.6750751 0 0 0 0.1122197,0.07477 9.589706,9.6750751 0 0 0 0.1137853,0.07266 9.589706,9.6750751 0 0 0 0.1143064,0.07161 9.589706,9.6750751 0 0 0 0.1153517,0.0695 9.589706,9.6750751 0 0 0 0.1169162,0.06793 9.589706,9.6750751 0 0 0 0.1174393,0.06636 9.589706,9.6750751 0 0 0 0.1179606,0.06477 9.589706,9.6750751 0 0 0 0.119527,0.06319 9.589706,9.6750751 0 0 0 0.1200481,0.06161 9.589706,9.6750751 0 0 0 0.1205703,0.05951 9.589706,9.6750751 0 0 0 0.1221369,0.05794 9.589706,9.6750751 0 0 0 0.1226579,0.05635 9.589706,9.6750751 0 0 0 0.1231812,0.05425 9.589706,9.6750751 0 0 0 0.1237013,0.05267 9.589706,9.6750751 0 0 0 0.1247466,0.05109 9.589706,9.6750751 0 0 0 0.1257899,0.04898 9.589706,9.6750751 0 0 0 0.1263122,0.0474 9.589706,9.6750751 0 0 0 0.1268342,0.04582 9.589706,9.6750751 0 0 0 0.1273555,0.04371 9.589706,9.6750751 0 0 0 0.1278775,0.04213 9.589706,9.6750751 0 0 0 0.1284008,0.04002 9.589706,9.6750751 0 0 0 0.1294431,0.03845 9.589706,9.6750751 0 0 0 0.1294441,0.03686 9.589706,9.6750751 0 0 0 0.1299652,0.03423 9.589706,9.6750751 0 0 0 0.1310095,0.03318 9.589706,9.6750751 0 0 0 0.1310096,0.03107 9.589706,9.6750751 0 0 0 0.1315317,0.02896 9.589706,9.6750751 0 0 0 0.1315318,0.02738 9.589706,9.6750751 0 0 0 0.132575,0.02528 9.589706,9.6750751 0 0 0 0.132576,0.02369 9.589706,9.6750751 0 0 0 0.1325751,0.0216 9.589706,9.6750751 0 0 0 0.1330972,0.01949 9.589706,9.6750751 0 0 0 0.1336194,0.01791 9.589706,9.6750751 0 0 0 0.1336194,0.01633 9.589706,9.6750751 0 0 0 0.1341415,0.0137 9.589706,9.6750751 0 0 0 0.1341405,0.01212 9.589706,9.6750751 0 0 0 0.1341416,0.01053 9.589706,9.6750751 0 0 0 0.092382,0.0058 h 1.1300225 79.711747 79.711756 1.13002 a 9.589706,9.6750751 0 0 0 0.0924,-0.0058 9.589706,9.6750751 0 0 0 0.13415,-0.01053 9.589706,9.6750751 0 0 0 0.13415,-0.01212 9.589706,9.6750751 0 0 0 0.13415,-0.0137 9.589706,9.6750751 0 0 0 0.1336,-0.01633 9.589706,9.6750751 0 0 0 0.13362,-0.01791 9.589706,9.6750751 0 0 0 0.13311,-0.01949 9.589706,9.6750751 0 0 0 0.13256,-0.0216 9.589706,9.6750751 0 0 0 0.13258,-0.02369 9.589706,9.6750751 0 0 0 0.13257,-0.02528 9.589706,9.6750751 0 0 0 0.13153,-0.02738 9.589706,9.6750751 0 0 0 0.13154,-0.02896 9.589706,9.6750751 0 0 0 0.13101,-0.03107 9.589706,9.6750751 0 0 0 0.13101,-0.03318 9.589706,9.6750751 0 0 0 0.12997,-0.03423 9.589706,9.6750751 0 0 0 0.12944,-0.03686 9.589706,9.6750751 0 0 0 0.12944,-0.03845 9.589706,9.6750751 0 0 0 0.12841,-0.04002 9.589706,9.6750751 0 0 0 0.12786,-0.04213 9.589706,9.6750751 0 0 0 0.12737,-0.04371 9.589706,9.6750751 0 0 0 0.12683,-0.04582 9.589706,9.6750751 0 0 0 0.12632,-0.0474 9.589706,9.6750751 0 0 0 0.12578,-0.04898 9.589706,9.6750751 0 0 0 0.12474,-0.05109 9.589706,9.6750751 0 0 0 0.12371,-0.05267 9.589706,9.6750751 0 0 0 0.12318,-0.05425 9.589706,9.6750751 0 0 0 0.12266,-0.05635 9.589706,9.6750751 0 0 0 0.12215,-0.05794 9.589706,9.6750751 0 0 0 0.12057,-0.05951 9.589706,9.6750751 0 0 0 0.12003,-0.06161 9.589706,9.6750751 0 0 0 0.11952,-0.06319 9.589706,9.6750751 0 0 0 0.11797,-0.06477 9.589706,9.6750751 0 0 0 0.11744,-0.06636 9.589706,9.6750751 0 0 0 0.11693,-0.06793 9.589706,9.6750751 0 0 0 0.11533,-0.0695 9.589706,9.6750751 0 0 0 0.11432,-0.07161 9.589706,9.6750751 0 0 0 0.11379,-0.07266 9.589706,9.6750751 0 0 0 0.11221,-0.07477 9.589706,9.6750751 0 0 0 0.1117,-0.07635 9.589706,9.6750751 0 0 0 0.11064,-0.07741 9.589706,9.6750751 0 0 0 0.1091,-0.07951 9.589706,9.6750751 0 0 0 0.10804,-0.08057 9.589706,9.6750751 0 0 0 0.10701,-0.08267 9.589706,9.6750751 0 0 0 0.10596,-0.08372 9.589706,9.6750751 0 0 0 0.1049,-0.08531 9.589706,9.6750751 0 0 0 0.10334,-0.08689 9.589706,9.6750751 0 0 0 0.10231,-0.08794 9.589706,9.6750751 0 0 0 0.10126,-0.09005 9.589706,9.6750751 0 0 0 0.0997,-0.0911 9.589706,9.6750751 0 0 0 0.0987,-0.09215 9.589706,9.6750751 0 0 0 0.0971,-0.09426 9.589706,9.6750751 0 0 0 0.0961,-0.09531 9.589706,9.6750751 0 0 0 0.0945,-0.09637 9.589706,9.6750751 0 0 0 0.0934,-0.09795 9.589706,9.6750751 0 0 0 0.0918,-0.09953 9.589706,9.6750751 0 0 0 0.0903,-0.100577 9.589706,9.6750751 0 0 0 0.0893,-0.101637 9.589706,9.6750751 0 0 0 0.0877,-0.103212 9.589706,9.6750751 0 0 0 0.0862,-0.104267 9.589706,9.6750751 0 0 0 0.0846,-0.105847 9.589706,9.6750751 0 0 0 0.0835,-0.106371 9.589706,9.6750751 0 0 0 0.0814,-0.107953 9.589706,9.6750751 0 0 0 0.0804,-0.109007 9.589706,9.6750751 0 0 0 0.0788,-0.110058 9.589706,9.6750751 0 0 0 0.0773,-0.111637 9.589706,9.6750751 0 0 0 0.0756,-0.112166 9.589706,9.6750751 0 0 0 0.0736,-0.113219 9.589706,9.6750751 0 0 0 0.0725,-0.114797 9.589706,9.6750751 0 0 0 0.071,-0.115324 9.589706,9.6750751 0 0 0 0.0694,-0.116379 9.589706,9.6750751 0 0 0 0.0674,-0.11743 9.589706,9.6750751 0 0 0 0.0663,-0.118487 9.589706,9.6750751 0 0 0 0.0643,-0.119009 9.589706,9.6750751 0 0 0 0.0627,-0.120592 9.589706,9.6750751 0 0 0 0.0611,-0.121117 9.589706,9.6750751 0 0 0 0.0594,-0.121644 9.589706,9.6750751 0 0 0 0.0573,-0.122697 9.589706,9.6750751 0 0 0 0.0558,-0.12375 9.589706,9.6750751 0 0 0 0.0542,-0.124277 9.589706,9.6750751 0 0 0 0.0522,-0.12533 9.589706,9.6750751 0 0 0 0.0506,-0.12533 9.589706,9.6750751 0 0 0 0.0491,-0.12691 9.589706,9.6750751 0 0 0 0.047,-0.126909 9.589706,9.6750751 0 0 0 0.0455,-0.127963 9.589706,9.6750751 0 0 0 0.0439,-0.128489 9.589706,9.6750751 0 0 0 0.0417,-0.129018 9.589706,9.6750751 0 0 0 0.0402,-0.129542 9.589706,9.6750751 0 0 0 0.0381,-0.130596 9.589706,9.6750751 0 0 0 0.0365,-0.130596 9.589706,9.6750751 0 0 0 0.0345,-0.131124 9.589706,9.6750751 0 0 0 0.0329,-0.132175 9.589706,9.6750751 0 0 0 0.0308,-0.132175 9.589706,9.6750751 0 0 0 0.0287,-0.132177 9.589706,9.6750751 0 0 0 0.0277,-0.133229 9.589706,9.6750751 0 0 0 0.025,-0.133229 9.589706,9.6750751 0 0 0 0.0234,-0.133753 9.589706,9.6750751 0 0 0 0.0219,-0.134283 9.589706,9.6750751 0 0 0 0.0198,-0.134284 9.589706,9.6750751 0 0 0 0.0178,-0.134283 9.589706,9.6750751 0 0 0 0.0162,-0.135335 9.589706,9.6750751 0 0 0 0.0142,-0.134808 9.589706,9.6750751 0 0 0 0.0121,-0.135335 9.589706,9.6750751 0 0 0 0.0104,-0.135335 9.589706,9.6750751 0 0 0 0.007,-0.110061 V 29.618521 10.377722 9.2376381 a 9.589706,9.6750751 0 0 0 -0.006,-0.093207 9.589706,9.6750751 0 0 0 -0.0105,-0.1353373 9.589706,9.6750751 0 0 0 -0.012,-0.1353342 9.589706,9.6750751 0 0 0 -0.014,-0.1348094 9.589706,9.6750751 0 0 0 -0.0157,-0.1348084 9.589706,9.6750751 0 0 0 -0.0178,-0.1348094 9.589706,9.6750751 0 0 0 -0.0193,-0.1342825 9.589706,9.6750751 0 0 0 -0.0214,-0.1342805 9.589706,9.6750751 0 0 0 -0.0234,-0.1337577 9.589706,9.6750751 0 0 0 -0.025,-0.1332287 9.589706,9.6750751 0 0 0 -0.0272,-0.1332288 9.589706,9.6750751 0 0 0 -0.0287,-0.1327028 9.589706,9.6750751 0 0 0 -0.0308,-0.132175 9.589706,9.6750751 0 0 0 -0.0329,-0.1316482 9.589706,9.6750751 0 0 0 -0.0344,-0.1311233 9.589706,9.6750751 0 0 0 -0.0361,-0.1311233 9.589706,9.6750751 0 0 0 -0.0381,-0.1300695 9.589706,9.6750751 0 0 0 -0.0397,-0.1295427 9.589706,9.6750751 0 0 0 -0.0417,-0.1295437 9.589706,9.6750751 0 0 0 -0.0434,-0.1284888 9.589706,9.6750751 0 0 0 -0.0455,-0.127963 9.589706,9.6750751 0 0 0 -0.047,-0.1269093 9.589706,9.6750751 0 0 0 -0.0486,-0.1269083 9.589706,9.6750751 0 0 0 -0.0506,-0.1258576 9.589706,9.6750751 0 0 0 -0.0522,-0.1253317 9.589706,9.6750751 0 0 0 -0.0537,-0.1242748 9.589706,9.6750751 0 0 0 -0.0558,-0.1237522 9.589706,9.6750751 0 0 0 -0.0573,-0.1226973 9.589706,9.6750751 0 0 0 -0.0594,-0.1221694 9.589706,9.6750751 0 0 0 -0.0605,-0.1211177 9.589706,9.6750751 0 0 0 -0.0627,-0.120064 9.589706,9.6750751 0 0 0 -0.0643,-0.119537 9.589706,9.6750751 0 0 0 -0.0658,-0.1184833 9.589706,9.6750751 0 0 0 -0.0674,-0.1174327 9.589706,9.6750751 0 0 0 -0.0694,-0.1163778 9.589706,9.6750751 0 0 0 -0.0705,-0.115852 9.589706,9.6750751 0 0 0 -0.0725,-0.1142714 9.589706,9.6750751 0 0 0 -0.0736,-0.1137434 9.589706,9.6750751 0 0 0 -0.0756,-0.1121669 9.589706,9.6750751 0 0 0 -0.0767,-0.111638 9.589706,9.6750751 0 0 0 -0.0788,-0.1100573 9.589706,9.6750751 0 0 0 -0.0799,-0.1095325 9.589706,9.6750751 0 0 0 -0.0819,-0.1079519 9.589706,9.6750751 0 0 0 -0.0831,-0.1069011 9.589706,9.6750751 0 0 0 -0.0845,-0.1053175 9.589706,9.6750751 0 0 0 -0.0862,-0.1047957 9.589706,9.6750751 0 0 0 -0.0872,-0.103212 9.589706,9.6750751 0 0 0 -0.0893,-0.1016351 9.589706,9.6750751 0 0 0 -0.0903,-0.1005751 9.589706,9.6750751 0 0 0 -0.0918,-0.099527 9.589706,9.6750751 0 0 0 -0.0929,-0.097946 9.589706,9.6750751 0 0 0 -0.0944,-0.096897 9.589706,9.6750751 0 0 0 -0.0956,-0.095318 9.589706,9.6750751 0 0 0 -0.0971,-0.094257 9.589706,9.6750751 0 0 0 -0.0987,-0.092678 9.589706,9.6750751 0 0 0 -0.0997,-0.091098 9.589706,9.6750751 0 0 0 -0.1007,-0.090049 9.589706,9.6750751 0 0 0 -0.10231,-0.088469 9.589706,9.6750751 0 0 0 -0.10334,-0.086889 9.589706,9.6750751 0 0 0 -0.10491,-0.08531 9.589706,9.6750751 0 0 0 -0.10543,-0.08426 9.589706,9.6750751 0 0 0 -0.107,-0.08268 9.589706,9.6750751 0 0 0 -0.10805,-0.080571 9.589706,9.6750751 0 0 0 -0.10909,-0.079521 9.589706,9.6750751 0 0 0 -0.11065,-0.077931 9.589706,9.6750751 0 0 0 -0.11118,-0.076362 9.589706,9.6750751 0 0 0 -0.11221,-0.074772 9.589706,9.6750751 0 0 0 -0.1138,-0.073203 9.589706,9.6750751 0 0 0 -0.1143,-0.071093 9.589706,9.6750751 0 0 0 -0.11534,-0.070033 9.589706,9.6750751 0 0 0 -0.1164,-0.068464 9.589706,9.6750751 0 0 0 -0.11743,-0.066354 9.589706,9.6750751 0 0 0 -0.1185,-0.064774 9.589706,9.6750751 0 0 0 -0.119,-0.063195 9.589706,9.6750751 0 0 0 -0.12006,-0.061615 9.589706,9.6750751 0 0 0 -0.12055,-0.060035 9.589706,9.6750751 0 0 0 -0.12163,-0.057926 9.589706,9.6750751 0 0 0 -0.12266,-0.056346 9.589706,9.6750751 0 0 0 -0.12317,-0.054767 9.589706,9.6750751 0 0 0 -0.12423,-0.053187 9.589706,9.6750751 0 0 0 -0.12474,-0.051077 9.589706,9.6750751 0 0 0 -0.12527,-0.048968 9.589706,9.6750751 0 0 0 -0.12579,-0.047918 9.589706,9.6750751 0 0 0 -0.12685,-0.045809 9.589706,9.6750751 0 0 0 -0.12735,-0.043709 9.589706,9.6750751 0 0 0 -0.12786,-0.0421298 9.589706,9.6750751 0 0 0 -0.12893,-0.0405503 9.589706,9.6750751 0 0 0 -0.12893,-0.0384407 9.589706,9.6750751 0 0 0 -0.12944,-0.036861 9.589706,9.6750751 0 0 0 -0.12997,-0.0347618 9.589706,9.6750751 0 0 0 -0.131,-0.0331719 9.589706,9.6750751 0 0 0 -0.13101,-0.0310725 9.589706,9.6750751 0 0 0 -0.13101,-0.0294827 9.589706,9.6750751 0 0 0 -0.13205,-0.0273834 9.589706,9.6750751 0 0 0 -0.13205,-0.0258038 9.589706,9.6750751 0 0 0 -0.13258,-0.0236942 9.589706,9.6750751 0 0 0 -0.1331,-0.0215949 9.589706,9.6750751 0 0 0 -0.1331,-0.0200153 9.589706,9.6750751 0 0 0 -0.13361,-0.0179057 9.589706,9.6750751 0 0 0 -0.13362,-0.016326 9.589706,9.6750751 0 0 0 -0.13362,-0.0142165 9.589706,9.6750751 0 0 0 -0.13415,-0.0126369 9.589706,9.6750751 0 0 0 -0.13414,-0.009987 9.589706,9.6750751 0 0 0 -0.10283,-0.006828 H 169.70842 89.999792 10.291181 Z" />
    <path
       id="path147"
       style="fill:#ffd5d5;stroke:#000000;stroke-width:0.00202322;stroke-miterlimit:4;stroke-dasharray:none"
       d="M 19.520331,2.5010116 A 17.019292,17.272635 0 0 0 2.5010116,19.773675 17.019292,17.272635 0 0 0 19.520331,37.046337 17.019292,17.272635 0 0 0 33.633216,29.42747 h 42.065192 a 17.019292,17.272635 0 0 0 14.113404,7.618867 17.019292,17.272635 0 0 0 14.112898,-7.618867 h 42.06467 a 17.019292,17.272635 0 0 0 14.1134,7.618867 A 17.019292,17.272635 0 0 0 177.1221,19.773675 17.019292,17.272635 0 0 0 160.10278,2.5010116 17.019292,17.272635 0 0 0 145.9899,10.120406 H 103.92471 A 17.019292,17.272635 0 0 0 89.811812,2.5010116 17.019292,17.272635 0 0 0 75.698926,10.120406 H 33.633737 A 17.019292,17.272635 0 0 0 19.520331,2.5010116 Z" />
    <ellipse
       style="fill:#008080;stroke:#000000;stroke-width:0;stroke-miterlimit:4;stroke-dasharray:none"
       id="path210"
       cx="89.938904"
       cy="19.726135"
       rx="16.938904"
       ry="17.191048" />
    <path
       id="path1193"
       style="fill:#ff4600;stroke:#ff0000;stroke-width:0"
       inkscape:transform-center-y="2.1655687"
       d="m 89.999861,4.5000011 -6.49986,12.9938669 h 3.875215 v 5.012782 h -3.875215 l 6.49986,12.993349 6.500379,-12.993349 h -4.125328 v -5.012782 h 4.125328 z" />
  </g>
</svg>
